<svg xmlns="http://www.w3.org/2000/svg" width="24.246" height="19.884" viewBox="0 0 24.246 19.884">
  <g id="Group_12872" data-name="Group 12872" transform="translate(-3.699 -0.698)">
    <path id="Subtraction_28" data-name="Subtraction 28" d="M23411.99-104.277a.687.687,0,0,1-.471-.188l-9.277-9.284a.652.652,0,0,1-.193-.47.662.662,0,0,1,.193-.47l9.271-9.272a.661.661,0,0,1,.477-.2.652.652,0,0,1,.465.194l.84.841a.675.675,0,0,1,.2.476.665.665,0,0,1-.2.476l-6.678,6.691h19.078a.692.692,0,0,1,.6.641v1.188a.721.721,0,0,1-.687.7h-19.057l6.75,6.726a.611.611,0,0,1,.2.447.648.648,0,0,1-.2.47l-.834.841A.679.679,0,0,1,23411.99-104.277Z" transform="translate(-23398.35 124.859)"/>
  </g>
</svg>
